<?xml version="1.0" standalone="no"?>
<!DOCTYPE svg PUBLIC "-//W3C//DTD SVG 20010904//EN"
 "http://www.w3.org/TR/2001/REC-SVG-20010904/DTD/svg10.dtd">
<svg version="1.0" xmlns="http://www.w3.org/2000/svg"
 width="300.000000pt" height="300.000000pt" viewBox="0 0 300.000000 300.000000"
 preserveAspectRatio="xMidYMid meet">
<metadata>
STAR-CSS
</metadata>
<g transform="translate(0.000000,300.000000) scale(0.100000,-0.100000)"
fill="#000000" stroke="none">
<path id="logo_outerStar" d="M2019 2858 c-7 -12 -95 -156 -197 -318 -102 -162 -186 -296 -186
-297 -2 -2 -1156 34 -1321 42 l-129 6 264 -179 c146 -98 346 -234 445 -301 99
-68 250 -170 336 -228 l156 -104 -234 -647 c-128 -356 -240 -662 -248 -680 -8
-17 -12 -32 -9 -32 3 0 26 17 52 39 26 21 281 220 567 443 l521 404 344 -138
c189 -75 346 -136 347 -134 2 2 -9 11 -24 21 -15 10 -170 129 -343 263 -173
135 -319 245 -325 245 -5 0 -164 -120 -352 -266 -188 -147 -345 -267 -348
-267 -3 0 -1 8 5 17 6 10 75 197 154 415 l143 398 -231 157 c-127 86 -294 199
-370 251 l-139 94 114 -6 c63 -3 193 -8 289 -11 96 -3 246 -8 332 -11 l156 -6
21 68 c11 38 63 220 116 404 54 184 101 343 107 353 5 10 7 21 5 24 -3 2 -11
-6 -18 -19z m-164 -497 c-47 -162 -86 -295 -87 -297 -2 -1 -194 4 -427 12
-391 13 -425 13 -442 -2 -34 -31 -61 -10 444 -351 141 -96 257 -176 257 -178
0 -2 -63 -178 -140 -391 -77 -214 -140 -398 -140 -410 0 -35 22 -46 51 -27 21
15 506 391 534 415 67 56 129 97 140 90 28 -16 474 -366 471 -369 -2 -2 -107
38 -235 88 -156 61 -238 89 -254 85 -17 -5 -323 -238 -678 -518 -162 -127
-384 -297 -386 -294 -3 3 33 105 292 821 68 187 131 364 141 392 l19 53 -25
24 c-14 13 -259 182 -545 376 -286 193 -524 356 -530 362 -7 7 44 8 155 4 266
-10 728 -25 957 -31 l212 -7 29 41 c16 22 83 126 148 231 66 105 120 187 122
182 1 -4 -36 -140 -83 -301z"/>
<path id="logo-mainStar" d="M1976 2247 c-39 -133 -76 -262 -83 -287 l-13 -45 -57 3 c-183 8 -528
19 -531 17 -2 -2 52 -40 120 -86 68 -45 178 -120 244 -165 l122 -84 -98 -269
c-53 -147 -100 -273 -104 -280 -4 -6 -3 -11 3 -11 5 0 13 4 16 10 3 5 106 88
229 183 l222 174 160 -124 c308 -240 318 -248 309 -228 -20 49 -195 531 -195
540 0 6 104 80 230 165 127 85 238 161 248 168 14 11 8 12 -43 8 -33 -3 -169
-8 -301 -12 -231 -6 -242 -6 -248 12 -3 11 -39 138 -81 284 -42 146 -77 265
-78 266 -1 1 -33 -107 -71 -239z m123 -42 c24 -82 49 -168 56 -190 7 -22 16
-52 19 -68 13 -56 35 -66 133 -61 243 10 383 13 379 6 -2 -4 -88 -63 -189
-132 -102 -69 -191 -134 -197 -146 -10 -18 1 -56 69 -245 45 -122 81 -227 81
-232 0 -5 -28 13 -62 40 -280 220 -329 255 -351 249 -12 -3 -105 -71 -207
-150 -101 -80 -186 -143 -188 -142 -1 2 34 106 79 231 76 210 81 230 68 252
-8 13 -101 82 -207 153 l-194 130 159 -5 c87 -3 197 -7 244 -10 105 -7 106 -5
143 120 15 50 35 119 46 155 10 36 28 98 40 139 12 40 25 70 29 65 4 -5 27
-76 50 -159z"/>
<path d="M161 1894 c0 -11 3 -14 6 -6 3 7 2 16 -1 19 -3 4 -6 -2 -5 -13z"/>
</g>
</svg>
